<svg width="32" height="32" viewBox="0 0 32 32" fill="none" xmlns="http://www.w3.org/2000/svg">
<g clip-path="url(#clip0_113_136)">
<path d="M26.6667 22.6666H29.3334V25.3333H2.66669L2.66669 22.6666H5.33335L5.33335 13.3333C5.33335 10.5043 6.45716 7.79121 8.45755 5.79082C10.4579 3.79043 13.171 2.66663 16 2.66663C18.829 2.66663 21.5421 3.79043 23.5425 5.79082C25.5429 7.79121 26.6667 10.5043 26.6667 13.3333V22.6666ZM24 22.6666V13.3333C24 11.2116 23.1572 9.17673 21.6569 7.67644C20.1566 6.17615 18.1218 5.33329 16 5.33329C13.8783 5.33329 11.8435 6.17615 10.3432 7.67644C8.84288 9.17673 8.00002 11.2116 8.00002 13.3333V22.6666H24ZM12 28H20V30.6666H12V28Z" fill="black"/>
</g>
<defs>
<clipPath id="clip0_113_136">
<rect width="32" height="32" fill="white"/>
</clipPath>
</defs>
</svg>
